<svg id="visual" viewBox="0 0 450 900" width="450" height="900" xmlns="http://www.w3.org/2000/svg" xmlns:xlink="http://www.w3.org/1999/xlink" version="1.1"><rect x="0" y="0" width="450" height="900" fill="#102e4a"></rect><defs><linearGradient id="grad1_0" x1="0%" y1="0%" x2="100%" y2="100%"><stop offset="30%" stop-color="#102e4a" stop-opacity="1"></stop><stop offset="70%" stop-color="#102e4a" stop-opacity="1"></stop></linearGradient></defs><defs><linearGradient id="grad2_0" x1="0%" y1="0%" x2="100%" y2="100%"><stop offset="30%" stop-color="#102e4a" stop-opacity="1"></stop><stop offset="70%" stop-color="#102e4a" stop-opacity="1"></stop></linearGradient></defs><g transform="translate(450, 0)"><path d="M0 405C-39.3 370.3 -78.7 335.5 -133.6 322.4C-188.4 309.3 -258.8 317.9 -286.4 286.4C-314 254.9 -298.7 183.4 -311.3 129C-324 74.6 -364.5 37.3 -405 0L0 0Z" fill="#715aff"></path></g><g transform="translate(0, 900)"><path d="M0 -405C55.8 -402.6 111.6 -400.3 155 -374.2C198.4 -348.1 229.4 -298.2 255.3 -255.3C281.2 -212.4 302 -176.5 326.1 -135.1C350.2 -93.7 377.6 -46.9 405 0L0 0Z" fill="#715aff"></path></g></svg>