<svg id="visual" viewBox="0 0 960 540" width="960" height="540" xmlns="http://www.w3.org/2000/svg" xmlns:xlink="http://www.w3.org/1999/xlink" version="1.1"><rect x="0" y="0" width="960" height="540" fill="#102E4A"></rect><defs><linearGradient id="grad1_0" x1="43.8%" y1="0%" x2="100%" y2="100%"><stop offset="14.444444444444446%" stop-color="#102e4a" stop-opacity="1"></stop><stop offset="85.55555555555554%" stop-color="#102e4a" stop-opacity="1"></stop></linearGradient></defs><defs><linearGradient id="grad2_0" x1="0%" y1="0%" x2="56.3%" y2="100%"><stop offset="14.444444444444446%" stop-color="#102e4a" stop-opacity="1"></stop><stop offset="85.55555555555554%" stop-color="#102e4a" stop-opacity="1"></stop></linearGradient></defs><g transform="translate(960, 0)"><path d="M0 432C-50 414.1 -99.9 396.3 -157.3 379.7C-214.6 363.1 -279.4 347.9 -305.5 305.5C-331.5 263.1 -318.9 193.6 -333.5 138.1C-348.2 82.7 -390.1 41.4 -432 0L0 0Z" fill="#715AFF"></path></g><g transform="translate(0, 540)"><path d="M0 -432C63.5 -432.5 127.1 -432.9 165.3 -399.1C203.5 -365.3 216.5 -297.2 256.7 -256.7C296.9 -216.1 364.4 -203.1 398.2 -164.9C432 -126.7 432 -63.4 432 0L0 0Z" fill="#715AFF"></path></g></svg>